<!-- CARNAGE D-016 PART 1 · THE UNINSURED — source mirror of the shape inlined in
     src/roster-shapes.js (ROSTER_SHAPES). Edit BOTH together. -->
<svg xmlns="http://www.w3.org/2000/svg" width="141" height="64" viewBox="0 0 141 64">
<rect x="18" y="0" width="26" height="14" rx="3" fill="#161616"/><rect x="18" y="50" width="26" height="14" rx="3" fill="#161616"/><rect x="104" y="8" width="18" height="10" rx="3" fill="#161616"/><rect x="104" y="46" width="18" height="10" rx="3" fill="#161616"/>
<path d="M 12 16 L 60 12 L 118 22 L 130 30 L 130 34 L 118 42 L 60 52 L 12 48 Q 6 32 12 16 Z" fill="#2b2b2f" stroke="#0d0d10" stroke-width="2"/>
<rect x="6" y="14" width="10" height="36" rx="2" fill="#0d0d10"/>
<rect x="14" y="14" width="42" height="36" rx="3" fill="#1c1c20"/>
<polygon points="14,17 24,20 24,44 14,41" fill="#8fd3e8"/>
<polygon points="46,16 60,21 60,43 46,48" fill="#bde9f6" stroke="#5b8fa3" stroke-width="1"/>
<rect x="62" y="18" width="34" height="28" rx="3" fill="#3a3f47" stroke="#161616" stroke-width="2"/>
<rect x="68" y="22" width="22" height="20" rx="2" fill="#c9ced6" stroke="#7d838e" stroke-width="2"/>
<rect x="74" y="10" width="10" height="10" rx="2" fill="#9aa1aa"/>
<g fill="#8f6e0a"><rect x="64" y="8" width="6" height="12" rx="2"/><rect x="64" y="44" width="6" height="12" rx="2"/><rect x="88" y="8" width="6" height="12" rx="2"/><rect x="88" y="44" width="6" height="12" rx="2"/></g>
<rect x="122" y="24" width="10" height="16" rx="2" fill="#c9ced6"/>
<rect x="128" y="21" width="6" height="6" rx="1" fill="#fff3a1"/><rect x="128" y="37" width="6" height="6" rx="1" fill="#fff3a1"/>
<rect x="10" y="20" width="5" height="9" fill="#ff5030"/><rect x="10" y="35" width="5" height="9" fill="#ff5030"/>
</svg>
